<?xml version="1.0" ?><!DOCTYPE svg  PUBLIC '-//W3C//DTD SVG 1.1//EN'  'http://www.w3.org/Graphics/SVG/1.1/DTD/svg11.dtd'><svg height="100%" style="fill-rule:evenodd;clip-rule:evenodd;stroke-linejoin:round;stroke-miterlimit:2;" version="1.1" viewBox="0 0 512 512" width="100%" xml:space="preserve" xmlns="http://www.w3.org/2000/svg" xmlns:serif="http://www.serif.com/" xmlns:xlink="http://www.w3.org/1999/xlink"><path d="M449.446,0c34.525,0 62.554,28.03 62.554,62.554l0,386.892c0,34.524 -28.03,62.554 -62.554,62.554l-386.892,0c-34.524,0 -62.554,-28.03 -62.554,-62.554l0,-386.892c0,-34.524 28.029,-62.554 62.554,-62.554l386.892,0Zm-193.446,76c-99.371,0 -180,80.629 -180,180c0,99.371 80.629,180 180,180c99.176,0 180,-80.629 180,-180c0,-99.371 -80.824,-180 -180,-180Zm0,333.839c-35.532,0 -68.328,-12.103 -94.295,-32.407c2.733,-5.663 33.97,-65.79 120.651,-96.052c0.388,-0.194 0.586,-0.194 0.975,-0.392c21.672,56.03 30.456,103.082 32.8,116.553c-18.547,8.003 -38.851,12.298 -60.131,12.298Zm85.705,-26.356c-1.562,-9.371 -9.759,-54.273 -29.869,-109.523c48.222,-7.614 90.389,4.882 95.659,6.639c-6.635,42.753 -31.233,79.653 -65.79,102.884Zm-239.544,-127.289l0,-4.683c6.639,0.194 81.216,1.17 157.939,-21.867c4.49,8.59 8.59,17.374 12.492,26.162c-1.951,0.586 -4.096,1.17 -6.051,1.756c-79.261,25.575 -121.432,95.465 -124.945,101.322c-24.401,-27.136 -39.435,-63.252 -39.435,-102.69Zm272.733,-97.221c21.474,26.161 34.362,59.544 34.75,95.659c-5.076,-0.976 -55.836,-11.322 -106.984,-4.878c-1.17,-2.538 -2.15,-5.274 -3.32,-8.006c-3.124,-7.416 -6.638,-15.03 -10.152,-22.256c56.618,-23.036 82.386,-56.224 85.706,-60.519Zm-184.295,-41.976c4.1,5.468 31.431,43.538 57.006,88.83c-71.842,19.13 -135.292,18.741 -142.125,18.741c9.954,-47.635 42.167,-87.267 85.119,-107.571Zm65.401,-14.447c39.046,0 74.772,14.645 101.909,38.657c-2.733,3.902 -25.967,34.945 -80.629,55.443c-25.186,-46.267 -53.1,-84.142 -57.395,-90c11.516,-2.732 23.619,-4.1 36.115,-4.1Z"/></svg>